# xmcd CD database file
#
# Track frame offsets:
#	150
#	20292
#	40325
#	66125
#	83183
#
# Disc length: 1432 seconds
#
# Revision: 0
# Processed by: cddbd v1.5.2PL0 Copyright (c) Steve Scherf et al.
# Submitted via: CDex 1.51
#
DISCID=36059605
DTITLE=CHIX CHICS - BIRTHDAY EVE
DYEAR=2008
DGENRE=New Age
TTITLE0=Shining Star
TTITLE1=Ding!Dong!Dong!
TTITLE2=Bye
TTITLE3=Type on Me
TTITLE4=愛のふるえ
EXTD=YEAR: 2008
EXTT0=
EXTT1=
EXTT2=
EXTT3=
EXTT4=
PLAYORDER=
